<?xml version="1.0" encoding="UTF-8"?>
<svg xmlns="http://www.w3.org/2000/svg" width="26" height="26" viewBox="0 0 26 26" fill="none">
  <g clip-path="url(#clip0_53_1197)">
    <path d="M24.375 4.875C24.3765 4.02961 24.0479 3.21703 23.4591 2.61037C22.8704 2.00371 22.068 1.65094 21.2229 1.6272C20.3778 1.60346 19.5569 1.91063 18.935 2.48328C18.3131 3.05592 17.9394 3.84877 17.8934 4.69292L7.78894 6.71345C7.55265 6.22244 7.1964 5.79892 6.75312 5.48202C6.30984 5.16512 5.79383 4.96506 5.25279 4.90034C4.71174 4.83562 4.1631 4.90833 3.65759 5.11174C3.15207 5.31514 2.70598 5.64269 2.36054 6.06411C2.0151 6.48553 1.78146 6.98722 1.68121 7.52283C1.58096 8.05843 1.61733 8.61066 1.78696 9.12849C1.95659 9.64632 2.25402 10.113 2.65174 10.4855C3.04947 10.858 3.53466 11.1242 4.06249 11.2595V17.9905C3.50819 18.1326 3.00136 18.4189 2.59347 18.8202C2.18558 19.2216 1.89115 19.7237 1.74007 20.2757C1.58899 20.8276 1.58664 21.4097 1.73326 21.9628C1.87988 22.516 2.17024 23.0205 2.57488 23.4251C2.97952 23.8298 3.48401 24.1201 4.03715 24.2667C4.59029 24.4134 5.17238 24.411 5.72432 24.2599C6.27626 24.1088 6.77839 23.8144 7.17975 23.4065C7.58111 22.9986 7.86739 22.4918 8.00954 21.9375H14.7404C14.8755 22.4658 15.1416 22.9514 15.5141 23.3496C15.8867 23.7478 16.3536 24.0456 16.8717 24.2155C17.3898 24.3854 17.9424 24.4219 18.4783 24.3217C19.0143 24.2215 19.5163 23.9877 19.938 23.642C20.3597 23.2964 20.6874 22.85 20.8909 22.3441C21.0943 21.8382 21.1669 21.2892 21.102 20.7478C21.037 20.2064 20.8366 19.6902 20.5192 19.2468C20.2019 18.8034 19.7779 18.4472 19.2864 18.2111L21.3071 8.10672C22.1343 8.06139 22.9129 7.70141 23.4833 7.10056C24.0537 6.49971 24.3727 5.70348 24.375 4.875ZM21.125 3.25C21.4464 3.25 21.7606 3.34531 22.0278 3.52386C22.295 3.70242 22.5033 3.95621 22.6263 4.25314C22.7493 4.55007 22.7815 4.87681 22.7188 5.19202C22.6561 5.50724 22.5013 5.79679 22.274 6.02405C22.0468 6.25131 21.7572 6.40608 21.442 6.46878C21.1268 6.53148 20.8001 6.4993 20.5031 6.37631C20.2062 6.25331 19.9524 6.04503 19.7739 5.7778C19.5953 5.51057 19.5 5.1964 19.5 4.875C19.5005 4.44418 19.6719 4.03114 19.9765 3.7265C20.2811 3.42186 20.6942 3.2505 21.125 3.25ZM3.24999 8.125C3.24999 7.80361 3.3453 7.48943 3.52385 7.2222C3.70241 6.95497 3.9562 6.74669 4.25313 6.6237C4.55006 6.50071 4.8768 6.46853 5.19201 6.53123C5.50723 6.59393 5.79678 6.74869 6.02404 6.97595C6.2513 7.20321 6.40607 7.49276 6.46877 7.80798C6.53147 8.1232 6.49929 8.44993 6.3763 8.74686C6.2533 9.04379 6.04502 9.29758 5.77779 9.47614C5.51056 9.6547 5.19639 9.75 4.87499 9.75C4.44417 9.74951 4.03113 9.57814 3.72649 9.2735C3.42185 8.96886 3.25049 8.55583 3.24999 8.125ZM4.87499 22.75C4.5536 22.75 4.23942 22.6547 3.97219 22.4761C3.70496 22.2976 3.49668 22.0438 3.37369 21.7469C3.2507 21.4499 3.21852 21.1232 3.28122 20.808C3.34392 20.4928 3.49868 20.2032 3.72594 19.976C3.9532 19.7487 4.24275 19.5939 4.55797 19.5312C4.87319 19.4685 5.19992 19.5007 5.49685 19.6237C5.79378 19.7467 6.04757 19.955 6.22613 20.2222C6.40469 20.4894 6.49999 20.8036 6.49999 21.125C6.4995 21.5558 6.32814 21.9689 6.0235 22.2735C5.71886 22.5781 5.30582 22.7495 4.87499 22.75ZM14.7404 20.3125H8.00954C7.86397 19.7539 7.57206 19.2443 7.16389 18.8361C6.75572 18.4279 6.24608 18.136 5.68749 17.9905V11.2595C6.35136 11.0869 6.94329 10.708 7.37802 10.1774C7.81276 9.64682 8.06785 8.99193 8.10655 8.30708L18.211 6.28656C18.5297 6.94137 19.0588 7.47038 19.7136 7.78895L17.6929 17.8933C17.0081 17.932 16.3532 18.1872 15.8226 18.6219C15.292 19.0567 14.9131 19.6486 14.7404 20.3125ZM17.875 22.75C17.5536 22.75 17.2394 22.6547 16.9722 22.4761C16.705 22.2976 16.4967 22.0438 16.3737 21.7469C16.2507 21.4499 16.2185 21.1232 16.2812 20.808C16.3439 20.4928 16.4987 20.2032 16.7259 19.976C16.9532 19.7487 17.2428 19.5939 17.558 19.5312C17.8732 19.4685 18.1999 19.5007 18.4969 19.6237C18.7938 19.7467 19.0476 19.955 19.2261 20.2222C19.4047 20.4894 19.5 20.8036 19.5 21.125C19.4995 21.5558 19.3281 21.9689 19.0235 22.2735C18.7189 22.5781 18.3058 22.7495 17.875 22.75Z" fill="black"></path>
  </g>
  <defs>
    <clipPath id="clip0_53_1197">
      <rect width="26" height="26" fill="white"></rect>
    </clipPath>
  </defs>
</svg>
