<svg width="124" height="232" viewBox="0 0 124 232" fill="none" xmlns="http://www.w3.org/2000/svg">
<g filter="url(#filter0_d_518_57)">
<rect x="29" y="29" width="66" height="174" rx="5" fill="#004D6B"/>
</g>
<path d="M48.392 154.463L46.3636 154.463L46.3636 144.906L48.392 144.906L48.392 148.469L58 148.469L58 150.901L48.392 150.901L48.392 154.463ZM58.1648 142.077C58.1648 142.634 58.0682 143.13 57.875 143.565C57.678 144.001 57.3883 144.346 57.0057 144.599C56.6193 144.849 56.1383 144.974 55.5625 144.974C55.0777 144.974 54.6705 144.885 54.3409 144.707C54.0114 144.529 53.7462 144.287 53.5455 143.98C53.3447 143.673 53.1932 143.325 53.0909 142.935C52.9886 142.541 52.9167 142.128 52.875 141.696C52.822 141.188 52.7727 140.779 52.7273 140.469C52.678 140.158 52.6061 139.933 52.5114 139.793C52.4167 139.652 52.2765 139.582 52.0909 139.582L52.0568 139.582C51.697 139.582 51.4186 139.696 51.2216 139.923C51.0246 140.147 50.9261 140.465 50.9261 140.878C50.9261 141.313 51.0227 141.66 51.2159 141.918C51.4053 142.175 51.6439 142.346 51.9318 142.429L51.75 144.668C51.2197 144.554 50.7614 144.33 50.375 143.997C49.9848 143.664 49.6856 143.234 49.4773 142.707C49.2652 142.177 49.1591 141.563 49.1591 140.866C49.1591 140.382 49.2159 139.918 49.3295 139.474C49.4432 139.027 49.6193 138.632 49.858 138.287C50.0966 137.938 50.4034 137.664 50.7784 137.463C51.1496 137.262 51.5947 137.162 52.1136 137.162L58 137.162L58 139.457L56.7898 139.457L56.7898 139.526C57.0625 139.666 57.303 139.853 57.5114 140.088C57.7159 140.323 57.8769 140.605 57.9943 140.935C58.108 141.264 58.1648 141.645 58.1648 142.077ZM56.4943 141.384C56.4943 141.027 56.4242 140.713 56.2841 140.44C56.1402 140.168 55.947 139.954 55.7045 139.798C55.4621 139.643 55.1875 139.565 54.8807 139.565L53.9545 139.565C54.0038 139.641 54.0492 139.745 54.0909 139.878C54.1288 140.007 54.1648 140.152 54.1989 140.315C54.2292 140.478 54.2576 140.641 54.2841 140.804C54.3068 140.967 54.3277 141.115 54.3466 141.247C54.3883 141.531 54.4545 141.779 54.5455 141.991C54.6364 142.204 54.7595 142.368 54.9148 142.486C55.0663 142.603 55.2557 142.662 55.483 142.662C55.8125 142.662 56.0644 142.543 56.2386 142.304C56.4091 142.062 56.4943 141.755 56.4943 141.384ZM46.3636 132.864L58 132.864L58 135.284L46.3636 135.284L46.3636 132.864ZM58.1705 126.947C58.1705 127.845 57.9886 128.618 57.625 129.266C57.2576 129.91 56.7386 130.406 56.0682 130.754C55.3939 131.103 54.5966 131.277 53.6761 131.277C52.7784 131.277 51.9905 131.103 51.3125 130.754C50.6345 130.406 50.1061 129.915 49.7273 129.283C49.3485 128.646 49.1591 127.9 49.1591 127.044C49.1591 126.468 49.2519 125.932 49.4375 125.436C49.6193 124.936 49.8939 124.5 50.2614 124.129C50.6288 123.754 51.0909 123.463 51.6477 123.254C52.2008 123.046 52.8485 122.942 53.5909 122.942L54.2557 122.942L54.2557 130.311L52.7557 130.311L52.7557 125.22C52.4072 125.22 52.0985 125.296 51.8295 125.447C51.5606 125.599 51.3504 125.809 51.1989 126.078C51.0436 126.343 50.9659 126.652 50.9659 127.004C50.9659 127.372 51.0511 127.697 51.2216 127.982C51.3883 128.262 51.6136 128.482 51.8977 128.641C52.178 128.8 52.4905 128.881 52.8352 128.885L54.2614 128.885C54.6932 128.885 55.0663 128.805 55.3807 128.646C55.6951 128.483 55.9375 128.254 56.108 127.959C56.2784 127.663 56.3636 127.313 56.3636 126.908C56.3636 126.639 56.3258 126.393 56.25 126.169C56.1742 125.946 56.0606 125.754 55.9091 125.595C55.7576 125.436 55.572 125.315 55.3523 125.232L55.5 122.993C56.0379 123.107 56.5076 123.339 56.9091 123.692C57.3068 124.04 57.6174 124.491 57.8409 125.044C58.0606 125.593 58.1705 126.228 58.1705 126.947ZM61.2727 121.362L49.2727 121.362L49.2727 118.976L50.7386 118.976L50.7386 118.868C50.5038 118.762 50.2651 118.608 50.0227 118.408C49.7765 118.203 49.572 117.938 49.4091 117.612C49.2424 117.283 49.1591 116.874 49.1591 116.385C49.1591 115.749 49.3258 115.161 49.6591 114.624C49.9886 114.086 50.4867 113.656 51.1534 113.334C51.8163 113.012 52.6477 112.851 53.6477 112.851C54.6212 112.851 55.4432 113.008 56.1136 113.322C56.7803 113.633 57.286 114.057 57.6307 114.595C57.9716 115.129 58.142 115.728 58.142 116.391C58.142 116.86 58.0644 117.26 57.9091 117.589C57.7538 117.915 57.5587 118.182 57.3239 118.391C57.0852 118.599 56.8447 118.758 56.6023 118.868L56.6023 118.942L61.2727 118.942L61.2727 121.362ZM53.6364 118.993C54.1553 118.993 54.608 118.921 54.9943 118.777C55.3807 118.633 55.6818 118.425 55.8977 118.152C56.1098 117.879 56.2159 117.548 56.2159 117.158C56.2159 116.764 56.108 116.43 55.892 116.158C55.6723 115.885 55.3693 115.679 54.983 115.538C54.5928 115.394 54.1439 115.322 53.6364 115.322C53.1326 115.322 52.6894 115.393 52.3068 115.533C51.9242 115.673 51.625 115.879 51.4091 116.152C51.1932 116.425 51.0852 116.76 51.0852 117.158C51.0852 117.552 51.1894 117.885 51.3977 118.158C51.6061 118.427 51.9015 118.633 52.2841 118.777C52.6667 118.921 53.1174 118.993 53.6364 118.993ZM52.1818 96.7955C53.4508 96.7955 54.5303 97.036 55.4205 97.517C56.3106 97.9943 56.9905 98.6458 57.4602 99.4716C57.9261 100.294 58.1591 101.218 58.1591 102.244C58.1591 103.278 57.9242 104.206 57.4545 105.028C56.9848 105.85 56.3049 106.5 55.4148 106.977C54.5246 107.455 53.447 107.693 52.1818 107.693C50.9129 107.693 49.8333 107.455 48.9432 106.977C48.053 106.5 47.375 105.85 46.9091 105.028C46.4394 104.206 46.2045 103.278 46.2045 102.244C46.2045 101.218 46.4394 100.294 46.9091 99.4716C47.375 98.6458 48.053 97.9943 48.9432 97.517C49.8333 97.036 50.9129 96.7955 52.1818 96.7955ZM52.1818 99.2898C51.3598 99.2898 50.6667 99.4129 50.1023 99.6591C49.5379 99.9015 49.1098 100.244 48.8182 100.687C48.5265 101.131 48.3807 101.65 48.3807 102.244C48.3807 102.839 48.5265 103.358 48.8182 103.801C49.1098 104.244 49.5379 104.589 50.1023 104.835C50.6667 105.078 51.3598 105.199 52.1818 105.199C53.0038 105.199 53.697 105.078 54.2614 104.835C54.8258 104.589 55.2538 104.244 55.5455 103.801C55.8371 103.358 55.983 102.839 55.983 102.244C55.983 101.65 55.8371 101.131 55.5455 100.687C55.2538 100.244 54.8258 99.9015 54.2614 99.6591C53.697 99.4129 53.0038 99.2898 52.1818 99.2898ZM46.3636 92.598L58 92.598L58 95.0185L46.3636 95.0185L46.3636 92.598ZM54.2841 85.0625L49.2727 85.0625L49.2727 82.642L58 82.642L58 84.9659L56.4148 84.9659L56.4148 85.0568C56.9261 85.2538 57.3371 85.5814 57.6477 86.0398C57.9583 86.4943 58.1136 87.0492 58.1136 87.7045C58.1136 88.2879 57.9811 88.8011 57.7159 89.2443C57.4508 89.6875 57.0739 90.0341 56.5852 90.2841C56.0966 90.5303 55.5114 90.6553 54.8295 90.6591L49.2727 90.6591L49.2727 88.2386L54.3977 88.2386C54.9129 88.2348 55.3201 88.0966 55.6193 87.8239C55.9186 87.5511 56.0682 87.1856 56.0682 86.7273C56.0682 86.4356 56.0019 86.1629 55.8693 85.9091C55.733 85.6553 55.5322 85.4508 55.267 85.2955C55.0019 85.1364 54.6742 85.0587 54.2841 85.0625ZM51.7614 73.4446L51.8977 75.6605C51.7083 75.6984 51.5379 75.7798 51.3864 75.9048C51.2311 76.0298 51.108 76.1946 51.017 76.3991C50.9223 76.5999 50.875 76.8404 50.875 77.1207C50.875 77.4957 50.9545 77.812 51.1136 78.0696C51.2689 78.3272 51.4773 78.456 51.7386 78.456C51.947 78.456 52.1231 78.3726 52.267 78.206C52.411 78.0393 52.5265 77.7533 52.6136 77.348L52.9318 75.7685C53.1061 74.92 53.3864 74.2874 53.7727 73.8707C54.1591 73.4541 54.6667 73.2457 55.2955 73.2457C55.8674 73.2457 56.3693 73.4143 56.8011 73.7514C57.233 74.0848 57.5701 74.5431 57.8125 75.1264C58.0511 75.706 58.1705 76.3745 58.1705 77.1321C58.1705 78.2874 57.9299 79.2079 57.4489 79.8935C56.964 80.5753 56.3049 80.9749 55.4716 81.0923L55.3466 78.7116C55.6989 78.6397 55.9678 78.4654 56.1534 78.1889C56.3352 77.9124 56.4261 77.5582 56.4261 77.1264C56.4261 76.7022 56.3447 76.3613 56.1818 76.1037C56.0151 75.8423 55.8011 75.7098 55.5398 75.706C55.3201 75.7098 55.1401 75.8026 55 75.9844C54.8561 76.1662 54.7462 76.4465 54.6705 76.8253L54.3693 78.3366C54.1989 79.1889 53.9034 79.8234 53.483 80.2401C53.0625 80.6529 52.5265 80.8594 51.875 80.8594C51.3144 80.8594 50.8314 80.7079 50.4261 80.4048C50.0208 80.098 49.7083 79.6681 49.4886 79.1151C49.2689 78.5582 49.1591 77.9067 49.1591 77.1605C49.1591 76.0582 49.392 75.1908 49.858 74.5582C50.3239 73.9219 50.9583 73.5507 51.7614 73.4446ZM57.9545 77.6605L57.9545 76.5469L58.4489 76.6378C58.5095 76.2476 58.6553 75.9294 58.8864 75.6832C59.1174 75.4332 59.4318 75.3063 59.8295 75.3026C60.3939 75.2988 60.8428 75.5601 61.1761 76.0866C61.5133 76.6132 61.6818 77.3518 61.6818 78.3026L60.6023 78.3253C60.6023 77.848 60.5436 77.4749 60.4261 77.206C60.3125 76.9332 60.1345 76.7912 59.892 76.7798C59.661 76.7723 59.4848 76.8613 59.3636 77.0469C59.2424 77.2325 59.1572 77.5223 59.108 77.9162L57.9545 77.6605ZM49.2727 67.0795L51.0909 67.0795L51.0909 72.3352L49.2727 72.3352L49.2727 67.0795ZM47.1818 71.142L47.1818 68.7216L55.3182 68.7216C55.5417 68.7216 55.7159 68.6875 55.8409 68.6193C55.9621 68.5511 56.0473 68.4564 56.0966 68.3352C56.1458 68.2102 56.1705 68.0663 56.1705 67.9034C56.1705 67.7898 56.161 67.6761 56.142 67.5625C56.1193 67.4489 56.1023 67.3617 56.0909 67.3011L57.892 66.9205C57.9299 67.0417 57.9735 67.2121 58.0227 67.4318C58.0758 67.6515 58.108 67.9186 58.1193 68.233C58.142 68.8163 58.0644 69.3277 57.8864 69.767C57.7083 70.2027 57.4318 70.5417 57.0568 70.7841C56.6818 71.0265 56.2083 71.1458 55.6364 71.142L47.1818 71.142ZM54.2841 59.9062L49.2727 59.9062L49.2727 57.4858L58 57.4858L58 59.8097L56.4148 59.8097L56.4148 59.9006C56.9261 60.0975 57.3371 60.4252 57.6477 60.8835C57.9583 61.3381 58.1136 61.893 58.1136 62.5483C58.1136 63.1316 57.9811 63.6449 57.7159 64.0881C57.4508 64.5312 57.0739 64.8778 56.5852 65.1278C56.0966 65.3741 55.5114 65.4991 54.8295 65.5028L49.2727 65.5028L49.2727 63.0824L54.3977 63.0824C54.9129 63.0786 55.3201 62.9403 55.6193 62.6676C55.9186 62.3949 56.0682 62.0294 56.0682 61.571C56.0682 61.2794 56.0019 61.0066 55.8693 60.7528C55.733 60.4991 55.5322 60.2945 55.267 60.1392C55.0019 59.9801 54.6742 59.9025 54.2841 59.9062ZM58 55.5497L49.2727 55.5497L49.2727 53.2031L50.7954 53.2031L50.7954 53.1122C50.2538 52.9531 49.8447 52.6861 49.5682 52.3111C49.2879 51.9361 49.1477 51.5043 49.1477 51.0156C49.1477 50.8944 49.1553 50.7637 49.1704 50.6236C49.1856 50.4834 49.2064 50.3603 49.2329 50.2543L51.3807 50.2543C51.3466 50.3679 51.3163 50.5251 51.2898 50.7259C51.2633 50.9266 51.25 51.1103 51.25 51.277C51.25 51.633 51.3276 51.9512 51.4829 52.2315C51.6345 52.508 51.8466 52.7277 52.1193 52.8906C52.392 53.0497 52.7064 53.1293 53.0625 53.1293L58 53.1293L58 55.5497Z" fill="white"/>
<path d="M51.6 170C50.1148 170 48.6904 170.59 47.6402 171.64C46.59 172.69 46 174.115 46 175.6M48.8 175.6C48.7998 175.232 48.872 174.868 49.0127 174.528C49.1533 174.188 49.3595 173.88 49.6196 173.62C49.8796 173.359 50.1884 173.153 50.5282 173.013C50.868 172.872 51.2322 172.8 51.6 172.8M55.3886 182.358L58.3584 179.389C58.8788 178.869 59.2917 178.252 59.5733 177.572C59.855 176.893 60 176.164 60 175.429C60 174.693 59.855 173.965 59.5733 173.286C59.2917 172.606 58.8788 171.989 58.3584 171.469L55.3886 174.439L56.3786 175.429C56.5087 175.559 56.6119 175.714 56.6823 175.883C56.7528 176.053 56.789 176.235 56.789 176.419C56.789 176.603 56.7528 176.785 56.6823 176.955C56.6119 177.125 56.5087 177.279 56.3786 177.409L53.4087 180.379C53.2788 180.509 53.1245 180.612 52.9546 180.683C52.7848 180.753 52.6027 180.789 52.4188 180.789C52.2349 180.789 52.0528 180.753 51.883 180.683C51.7131 180.612 51.5588 180.509 51.4289 180.379L50.4389 179.389L47.4691 182.359C47.9889 182.879 48.6062 183.292 49.2857 183.573C49.9651 183.855 50.6934 184 51.4289 184C52.1645 184 52.8928 183.855 53.5722 183.573C54.2516 183.292 54.8689 182.879 55.3886 182.358Z" stroke="white" stroke-miterlimit="10" stroke-linecap="square"/>
<defs>
<filter id="filter0_d_518_57" x="0.799999" y="0.799999" width="122.4" height="230.4" filterUnits="userSpaceOnUse" color-interpolation-filters="sRGB">
<feFlood flood-opacity="0" result="BackgroundImageFix"/>
<feColorMatrix in="SourceAlpha" type="matrix" values="0 0 0 0 0 0 0 0 0 0 0 0 0 0 0 0 0 0 127 0" result="hardAlpha"/>
<feMorphology radius="5" operator="dilate" in="SourceAlpha" result="effect1_dropShadow_518_57"/>
<feOffset/>
<feGaussianBlur stdDeviation="11.6"/>
<feComposite in2="hardAlpha" operator="out"/>
<feColorMatrix type="matrix" values="0 0 0 0 0.176471 0 0 0 0 0.215686 0 0 0 0 0.282353 0 0 0 0.3 0"/>
<feBlend mode="normal" in2="BackgroundImageFix" result="effect1_dropShadow_518_57"/>
<feBlend mode="normal" in="SourceGraphic" in2="effect1_dropShadow_518_57" result="shape"/>
</filter>
</defs>
</svg>
